<?xml version="1.0" encoding="UTF-8"?>
<svg width="433px" height="614px" viewBox="0 0 433 614" version="1.1" xmlns="http://www.w3.org/2000/svg" xmlns:xlink="http://www.w3.org/1999/xlink">
    <title>Group 13</title>
    <g id="Page-1" stroke="none" stroke-width="1" fill="none" fill-rule="evenodd">
        <g id="TGN_100520_Canned_Bean_Microsite_003" transform="translate(-163.000000, -2492.000000)">
            <g id="Group-13" transform="translate(163.000000, 2492.000000)">
                <polygon id="Rectangle-6" fill="#ACCC02" transform="translate(221.000000, 39.000000) rotate(-180.000000) translate(-221.000000, -39.000000) " points="140 25 302 25 302 53 140 53"></polygon>
                <polygon id="Rectangle-6-Copy" fill="#ACCC02" transform="translate(260.500000, 120.000000) rotate(-180.000000) translate(-260.500000, -120.000000) " points="140 106 381 106 381 134 140 134"></polygon>
                <polygon id="Rectangle-6-Copy-3" fill="#ACCC02" transform="translate(169.500000, 201.000000) rotate(-180.000000) translate(-169.500000, -201.000000) " points="140 187 199 187 199 215 140 215"></polygon>
                <polygon id="Rectangle-6-Copy-5" fill="#ACCC02" transform="translate(151.000000, 282.000000) rotate(-180.000000) translate(-151.000000, -282.000000) " points="140 268 162 268 162 296 140 296"></polygon>
                <polygon id="Rectangle-6-Copy-7" fill="#ACCC02" transform="translate(142.500000, 363.000000) rotate(-180.000000) translate(-142.500000, -363.000000) " points="140 349 145 349 145 377 140 377"></polygon>
                <polygon id="Rectangle-6-Copy-9" fill="#ACCC02" transform="translate(142.500000, 444.000000) rotate(-180.000000) translate(-142.500000, -444.000000) " points="140 430 145 430 145 458 140 458"></polygon>
                <polygon id="Rectangle-6-Copy-11" fill="#ACCC02" transform="translate(140.500000, 524.000000) rotate(-180.000000) translate(-140.500000, -524.000000) " points="140 510 141 510 141 538 140 538"></polygon>
                <polygon id="Rectangle-6" fill="#F18345" transform="translate(184.000000, 70.000000) rotate(-180.000000) translate(-184.000000, -70.000000) " points="140 56 228 56 228 84 140 84"></polygon>
                <polygon id="Rectangle-6-Copy-2" fill="#F18345" transform="translate(223.500000, 151.000000) rotate(-180.000000) translate(-223.500000, -151.000000) " points="140 137 307 137 307 165 140 165"></polygon>
                <polygon id="Rectangle-6-Copy-4" fill="#F18345" transform="translate(199.000000, 232.000000) rotate(-180.000000) translate(-199.000000, -232.000000) " points="140 218 258 218 258 246 140 246"></polygon>
                <polygon id="Rectangle-6-Copy-6" fill="#F18345" transform="translate(171.000000, 313.000000) rotate(-180.000000) translate(-171.000000, -313.000000) " points="140 299 202 299 202 327 140 327"></polygon>
                <polygon id="Rectangle-6-Copy-8" fill="#F18345" transform="translate(153.500000, 394.000000) rotate(-180.000000) translate(-153.500000, -394.000000) " points="140 380 167 380 167 408 140 408"></polygon>
                <polygon id="Rectangle-6-Copy-10" fill="#F18345" transform="translate(151.000000, 475.000000) rotate(-180.000000) translate(-151.000000, -475.000000) " points="140 461 162 461 162 489 140 489"></polygon>
                <polygon id="Rectangle-6-Copy-12" fill="#F18345" transform="translate(145.500000, 555.000000) rotate(-180.000000) translate(-145.500000, -555.000000) " points="140 541 151 541 151 569 140 569"></polygon>
                <text id="3+-times/week" font-family="Helvetica" font-size="16" font-weight="normal" line-spacing="26" fill="#263449">
                    <tspan x="19.2890625" y="54">3+ times/week</tspan>
                </text>
                <text id="1-2-times/week" font-family="Helvetica" font-size="16" font-weight="normal" line-spacing="26" fill="#263449">
                    <tspan x="14.40625" y="137">1-2 times/week</tspan>
                </text>
                <text id="Every-2-3-Weeks" font-family="Helvetica" font-size="16" font-weight="normal" line-spacing="26" fill="#263449">
                    <tspan x="53.53125" y="219">Every 2-3 </tspan>
                    <tspan x="73.1015625" y="245">Weeks</tspan>
                </text>
                <text id="Once-a-month" font-family="Helvetica" font-size="16" font-weight="normal" line-spacing="26" fill="#263449">
                    <tspan x="21.5" y="301">Once a month</tspan>
                </text>
                <text id="Every-2-3-months" font-family="Helvetica" font-size="16" font-weight="normal" line-spacing="26" fill="#263449">
                    <tspan x="53.53125" y="382">Every 2-3 </tspan>
                    <tspan x="69.53125" y="408">months</tspan>
                </text>
                <text id="Less-often-than-ever" font-family="Helvetica" font-size="16" font-weight="normal" line-spacing="21" fill="#263449">
                    <tspan x="48.171875" y="451">Less often </tspan>
                    <tspan x="33.9453125" y="472">than every 3 </tspan>
                    <tspan x="69.53125" y="493">months</tspan>
                </text>
                <text id="Never" font-family="Helvetica" font-size="16" font-weight="normal" line-spacing="26" fill="#263449">
                    <tspan x="79.3203125" y="543">Never</tspan>
                </text>
                <text id="33%" font-family="Helvetica" font-size="16" font-weight="normal" line-spacing="26" fill="#263449">
                    <tspan x="315" y="39">33%</tspan>
                </text>
                <text id="49%" font-family="Helvetica" font-size="16" font-weight="normal" line-spacing="26" fill="#263449">
                    <tspan x="393" y="122">49%</tspan>
                </text>
                <text id="12%" font-family="Helvetica" font-size="16" font-weight="normal" line-spacing="26" fill="#263449">
                    <tspan x="212" y="202">12%</tspan>
                </text>
                <text id="4%" font-family="Helvetica" font-size="16" font-weight="normal" line-spacing="26" fill="#263449">
                    <tspan x="173" y="282">4%</tspan>
                </text>
                <text id="1%" font-family="Helvetica" font-size="16" font-weight="normal" line-spacing="26" fill="#263449">
                    <tspan x="159" y="364">1%</tspan>
                </text>
                <text id="1%" font-family="Helvetica" font-size="16" font-weight="normal" line-spacing="26" fill="#263449">
                    <tspan x="159" y="443">1%</tspan>
                </text>
                <text id="0%" font-family="Helvetica" font-size="16" font-weight="normal" line-spacing="26" fill="#263449">
                    <tspan x="153" y="524">0%</tspan>
                </text>
                <text id="18%" font-family="Helvetica" font-size="16" font-weight="normal" line-spacing="26" fill="#263449">
                    <tspan x="240" y="72">18%</tspan>
                </text>
                <text id="34%" font-family="Helvetica" font-size="16" font-weight="normal" line-spacing="26" fill="#263449">
                    <tspan x="320" y="155">34%</tspan>
                </text>
                <text id="24%" font-family="Helvetica" font-size="16" font-weight="normal" line-spacing="26" fill="#263449">
                    <tspan x="270" y="234">24%</tspan>
                </text>
                <text id="13%" font-family="Helvetica" font-size="16" font-weight="normal" line-spacing="26" fill="#263449">
                    <tspan x="212" y="314">13%</tspan>
                </text>
                <text id="5%" font-family="Helvetica" font-size="16" font-weight="normal" line-spacing="26" fill="#263449">
                    <tspan x="179" y="395">5%</tspan>
                </text>
                <text id="4%" font-family="Helvetica" font-size="16" font-weight="normal" line-spacing="26" fill="#263449">
                    <tspan x="173" y="476">4%</tspan>
                </text>
                <text id="2%" font-family="Helvetica" font-size="16" font-weight="normal" line-spacing="26" fill="#263449">
                    <tspan x="155" y="556">2%</tspan>
                </text>
                <line x1="-167" y1="307" x2="445.5" y2="307" id="Line-3-Copy" stroke="#263449" stroke-linecap="square" transform="translate(139.500000, 307.000000) rotate(-270.000000) translate(-139.500000, -307.000000) "></line>
            </g>
        </g>
    </g>
</svg>