<svg xmlns="http://www.w3.org/2000/svg" xmlns:xlink="http://www.w3.org/1999/xlink" width="131" height="131" viewBox="0 0 131 131"><defs><clipPath id="a"><path d="M0,0H131V131H0Z" transform="translate(0 0.001)" fill="none"/></clipPath></defs><g transform="translate(-0.395 0)"><g transform="translate(0.394)"><path d="M0,0H131V131H0Z" transform="translate(0 0.001)" fill="none"/><g clip-path="url(#a)"><path d="M65.556,131A65.647,65.647,0,0,1,2.216,82.406,64.714,64.714,0,0,1,0,65.62,65.934,65.934,0,0,1,2.26,48.564,65.066,65.066,0,0,1,32.77,8.8,65.949,65.949,0,0,1,48.618,2.216,64.736,64.736,0,0,1,65.4,0,65.934,65.934,0,0,1,82.46,2.26a65.492,65.492,0,0,1,23.55,114.722,1.671,1.671,0,0,1-1.04.359,1.714,1.714,0,0,1-.727-.163,1.694,1.694,0,0,1-.96-1.522,1.708,1.708,0,0,1,.164-.727,1.673,1.673,0,0,1,.482-.6,61.367,61.367,0,0,0,17.578-22.036,62.856,62.856,0,0,0,5.568-34.653l-.628-5.031-1.156,4.937a7.226,7.226,0,0,1-1.9,3.465l-1.679,1.679a1.68,1.68,0,0,1-1.193.494,1.7,1.7,0,0,1-.365-.041,1.677,1.677,0,0,1-1.219-1.069l-3.526-9.7a2.225,2.225,0,0,0-.4-.687l-3.195-3.741a2.229,2.229,0,0,0-1.7-.782h-2.933l1.077,1.619a1.685,1.685,0,0,1-.211,2.128A33.022,33.022,0,0,1,96.2,58.494l-1.955.72a1.664,1.664,0,0,1-.582.105,1.687,1.687,0,0,1-1.495-.906L85.459,45.554a1.692,1.692,0,0,1-.192-.78V42.567l-4.044-3.86-4-1.407a1.679,1.679,0,0,1-.824-.625,1.7,1.7,0,0,1-.3-.966,1.694,1.694,0,0,1,.721-1.382,1.706,1.706,0,0,1,.965-.3,1.687,1.687,0,0,1,.56.1l4.347,1.527a1.692,1.692,0,0,1,.6.372l4.828,4.609a1.693,1.693,0,0,1,.522,1.219V44.36l5.837,11.182.752-.284a29.451,29.451,0,0,0,8.836-5.247l.608-.523-.841-1.263a2.849,2.849,0,0,1,2.37-4.43h3.911a5.6,5.6,0,0,1,4.26,1.964l3.2,3.741a5.576,5.576,0,0,1,1,1.723l3.435,9.447.119-4.871v-.007a6.018,6.018,0,0,1,2.005-4.378l1.516-1.351-.142-.538a61.526,61.526,0,0,0-6.2-15.07A62.23,62.23,0,0,0,71.309,3.692l-.49-.046-7.768,9.743a1.679,1.679,0,0,1-.761.54L45.122,19.948,40.97,30.016l4.953,6.939.719-1.16a10.933,10.933,0,0,1,9.264-5.17h1.479a1.686,1.686,0,1,1,0,3.371H55.911a7.549,7.549,0,0,0-7.082,4.982l-.065.178-.491,1.372,1.448-.162c1.219-.138,2.514-.183,3.555-.22l.108,0c.685-.025,1.332-.048,1.878-.093.126-.011.47-.037.934-.037h.025a10.1,10.1,0,0,1,3.022.433,4.823,4.823,0,0,1,1.4.7,3.03,3.03,0,0,1,.931,1.127,2.72,2.72,0,0,1,.262,1.168,2.977,2.977,0,0,1-.091.721l-.155.62.582.389c.4.264.937.625,1.5.975a17.7,17.7,0,0,0,1.673.949l.868.417.365-.89a2.275,2.275,0,0,1,.361-.59,2.148,2.148,0,0,1,.29-.288,3.6,3.6,0,0,1,.9-.51,9.787,9.787,0,0,1,1.509-.459,1.677,1.677,0,0,1,.968.059c.289.107.631.215,1.109.353.4.115.822.23,1.272.352l.046.013A39.209,39.209,0,0,1,77.059,46.8a11.809,11.809,0,0,1,1.713.819,5.818,5.818,0,0,1,1.274.986,12.8,12.8,0,0,1,2.092,3.158c.594,1.2,1.1,2.521,1.555,3.687l.026.067c.35.905.681,1.76,1.03,2.506.174.372.345.753.525,1.156l.033.073.019.043a30.126,30.126,0,0,0,1.553,3.131A7.633,7.633,0,0,0,89.176,65a1.861,1.861,0,0,0,.322.166,4.141,4.141,0,0,0,.554.177c.254.065.548.126.9.187.294.051.582.1.849.137a11.944,11.944,0,0,1,2.772.652,3.682,3.682,0,0,1,1.054.644,2.794,2.794,0,0,1,.716,1,2.838,2.838,0,0,1,.232,1.143,4.557,4.557,0,0,1-.469,1.871,7.53,7.53,0,0,1-.415.761c-.129.21-.248.383-.344.522l-.015.022a27.547,27.547,0,0,1-3.991,4.288,26.456,26.456,0,0,0-3.22,3.369,6.909,6.909,0,0,0-.905,1.581,4.617,4.617,0,0,0-.329,1.7,5.4,5.4,0,0,0,.259,1.6c.206.664.418,1.35.568,2a8.4,8.4,0,0,1,.24,1.887,5.717,5.717,0,0,1-.461,2.272,9.186,9.186,0,0,1-1.772,2.627c-.177.193-.343.37-.5.541l-.062.066-.009.01c-.251.266-.467.5-.66.718a5.65,5.65,0,0,0-.751,1.045,7.258,7.258,0,0,0-.544,1.337,7.418,7.418,0,0,1-.9,1.9,11.436,11.436,0,0,1-1.034,1.292l-.059.066c-.152.173-.3.336-.438.513a5.345,5.345,0,0,0-.458.66,2.858,2.858,0,0,0-.279.715c-.054.207-.1.417-.142.639l-.017.085a10.715,10.715,0,0,1-.419,1.616,6.045,6.045,0,0,1-1,1.766,19.014,19.014,0,0,1-3.8,3.487,12.381,12.381,0,0,1-2.464,1.337,6.83,6.83,0,0,1-2.47.515,4.491,4.491,0,0,1-1.888-.4,3.6,3.6,0,0,1-.9-.582,8.662,8.662,0,0,1-1.772-2.4,36.518,36.518,0,0,1-2.327-5.621c-.3-.9-.732-1.844-1.187-2.848l-.047-.1a39.248,39.248,0,0,1-1.53-3.7,11.712,11.712,0,0,1-.694-3.735,7.439,7.439,0,0,1,.356-2.318q.066-.206.132-.408l.067-.206,0-.006c.23-.7.429-1.307.577-1.885a6.817,6.817,0,0,0,.243-1.712,5.331,5.331,0,0,0-.131-1.168,7.307,7.307,0,0,0-.4-1.227,2.357,2.357,0,0,0-.231-.416,6.357,6.357,0,0,0-.419-.535c-.14-.163-.287-.325-.428-.48l-.028-.031a13.16,13.16,0,0,1-1.174-1.425,5.373,5.373,0,0,1-.807-1.759,8.412,8.412,0,0,1-.207-2.046q0-.073,0-.145v-.009q0-.076,0-.15c0-.081,0-.158,0-.229,0-.229,0-.417-.015-.595a2.5,2.5,0,0,0-.055-.4,1.665,1.665,0,0,0-.1-.308,1.588,1.588,0,0,0-.25-.39,2.926,2.926,0,0,0-.214-.219l-.022-.021a2.655,2.655,0,0,0-.845-.551,2.758,2.758,0,0,0-1.026-.183H54.38a6.354,6.354,0,0,0-1.145.125c-.375.07-.81.167-1.456.327a19.446,19.446,0,0,1-2.421.491,15.18,15.18,0,0,1-1.769.1,13.549,13.549,0,0,1-11.134-5.631,14.144,14.144,0,0,1-2.645-8.306,15.1,15.1,0,0,1,1.446-6.4,23.421,23.421,0,0,1,4.029-5.576l.056-.063c.268-.3.545-.613.82-.931.175-.2.368-.45.645-.83.221-.3.455-.634.74-1.039a23.855,23.855,0,0,1,3.016-3.757l.595-.543L37.683,31.216a1.69,1.69,0,0,1-.186-1.623l4.8-11.629a1.687,1.687,0,0,1,1-.948l17.423-6.108L66.7,3.4l-1.909.019a61.726,61.726,0,0,0-30.337,8.3A62.571,62.571,0,0,0,27.1,16.706l-1.017.8,1.1.685a11.1,11.1,0,0,1,4.366,5.141A10.047,10.047,0,0,1,29.6,33.986l-2.918,3.127-7.115,12.42a1.679,1.679,0,0,1-.482.534L13.81,53.84l3.682,5.4a1.686,1.686,0,0,1-1.114,2.612l-.065.011c-.863.143-2.569.421-4.305.678-1.147.17-2.064.3-2.81.389a15.242,15.242,0,0,1-1.706.131,2.647,2.647,0,0,1-.9-.118,1.194,1.194,0,0,1-.258-.131,2.257,2.257,0,0,1-.29-.23,1.694,1.694,0,0,1-.31-.381l-.053-.088-.072-.075c-.129-.133-.31-.308-.57-.551L3.626,60.168,3.516,62.1c-.066,1.164-.1,2.346-.1,3.515,0,1.223.037,2.459.109,3.672l.069,1.173,7.731-2.511a1.691,1.691,0,0,1,1.542.262l11.465,8.716,6.062,1.184a7.164,7.164,0,0,1,5.431,9.262,3.761,3.761,0,0,0,0,2.352l.821,2.529a7.127,7.127,0,0,1,.351,2.207,7.245,7.245,0,0,1-1.342,4.174,7.1,7.1,0,0,1-3.607,2.643l-1.63.529-2.532,13.215.453.34a61.627,61.627,0,0,0,37,12.347,62.2,62.2,0,0,0,22.394-4.183,1.682,1.682,0,0,1,.6-.113,1.707,1.707,0,0,1,.945.291,1.689,1.689,0,0,1,.742,1.4,1.685,1.685,0,0,1-1.081,1.573A64.926,64.926,0,0,1,65.556,131ZM11.528,71.428l-.452.148L3.962,73.886l.112.759a61.639,61.639,0,0,0,7.647,21.923,62.808,62.808,0,0,0,11.99,14.955l1.2,1.1,2.381-12.426a1.685,1.685,0,0,1,1.135-1.286L31,98.07a3.79,3.79,0,0,0,2.434-4.775l-.822-2.529a7.1,7.1,0,0,1,.006-4.445,3.819,3.819,0,0,0,.192-1.189,3.78,3.78,0,0,0-3.066-3.712L23.3,80.161a1.7,1.7,0,0,1-.7-.313Zm51.6,19.221-.044.135,0,.005c-.049.15-.1.3-.149.459a4.165,4.165,0,0,0-.19,1.282,9,9,0,0,0,.633,3c.36,1.005.824,2.026,1.272,3.013l.014.03c.492,1.085,1,2.207,1.359,3.269a35.6,35.6,0,0,0,1.914,4.746,7.871,7.871,0,0,0,1.076,1.676l.248.266.363.022.1,0a2.327,2.327,0,0,0,.463-.049,6.593,6.593,0,0,0,2.155-.959,15.007,15.007,0,0,0,2-1.538,14.645,14.645,0,0,0,1.5-1.551,2.764,2.764,0,0,0,.485-.9,8.544,8.544,0,0,0,.234-.971l.009-.044a7.539,7.539,0,0,1,.832-2.477,10.718,10.718,0,0,1,1.346-1.777l.055-.062a8.033,8.033,0,0,0,.66-.811,4.1,4.1,0,0,0,.528-1.1,9.765,9.765,0,0,1,1.194-2.586A14.231,14.231,0,0,1,82.7,91.912c.162-.173.346-.368.541-.58a7.249,7.249,0,0,0,.958-1.216,2.88,2.88,0,0,0,.287-.679,2.737,2.737,0,0,0,.1-.741,5.145,5.145,0,0,0-.187-1.269c-.113-.453-.265-.951-.467-1.6a8.875,8.875,0,0,1-.425-2.653,7.6,7.6,0,0,1,.482-2.671A11.418,11.418,0,0,1,86.1,77.061a36.951,36.951,0,0,1,2.937-2.955l.122-.114a24.79,24.79,0,0,0,3.289-3.475l.851-1.188-1.442-.237c-.206-.034-.407-.065-.576-.091a20.614,20.614,0,0,1-2.1-.4,6.247,6.247,0,0,1-1.853-.779A10.49,10.49,0,0,1,84.252,64.6a30.26,30.26,0,0,1-2.021-3.965c-.174-.389-.353-.791-.535-1.179-.4-.859-.781-1.839-1.147-2.787l-.011-.029c-.392-1.014-.8-2.063-1.268-3.059a10.511,10.511,0,0,0-1.676-2.658,2.531,2.531,0,0,0-.523-.409,7.3,7.3,0,0,0-1.1-.522c-.531-.209-1.182-.428-1.99-.668-.665-.2-1.3-.37-1.81-.508l-.025-.007c-.43-.116-.875-.236-1.285-.354l-.708-.2-.344.651a1.87,1.87,0,0,1-.465.571l-.022.018-.022.02c-.048.044-.082.08-.108.106l-.031.031-.014.015c-.107.108-.229.231-.376.359a3.491,3.491,0,0,1-.872.564,3.183,3.183,0,0,1-1.31.27c-.079,0-.163,0-.247-.008h0a7.621,7.621,0,0,1-2.932-.955A34.027,34.027,0,0,1,60.3,47.982c-.4-.266-.728-.485-1.041-.686-.386-.248-.668-.417-.915-.549a1.694,1.694,0,0,1-.891-1.487,1.673,1.673,0,0,1,.115-.611l.444-1.139-1.22-.1c-.232-.018-.46-.027-.678-.027-.2,0-.392.008-.573.023-.618.051-1.338.078-2.147.106l-.1,0c-.985.036-2.1.077-3.172.192a13.656,13.656,0,0,0-1.586.251,5.039,5.039,0,0,0-1.363.486l-.017.01-.017.01a2.522,2.522,0,0,0-.39.311,7.694,7.694,0,0,0-.624.683c-.276.334-.6.75-.979,1.274-.322.438-.627.872-.85,1.189-.608.864-1.147,1.622-1.595,2.137-.3.345-.605.69-.9,1.023l-.042.047c-.677.761-1.316,1.481-1.9,2.237a13.423,13.423,0,0,0-1.559,2.49,11.7,11.7,0,0,0-1.123,4.964,10.775,10.775,0,0,0,2.011,6.337,9.981,9.981,0,0,0,3.65,3.14,10.413,10.413,0,0,0,4.724,1.089,12.14,12.14,0,0,0,1.4-.083,15.945,15.945,0,0,0,1.9-.388l.108-.027a14.376,14.376,0,0,1,3.4-.537h.011a6.211,6.211,0,0,1,2.11.342,5.9,5.9,0,0,1,2.077,1.289,5.148,5.148,0,0,1,1.472,2.277,6.866,6.866,0,0,1,.256,2.084q0,.067,0,.133v.009q0,.07,0,.138c0,.093,0,.185,0,.277a5.232,5.232,0,0,0,.112,1.256,1.514,1.514,0,0,0,.108.3,2.725,2.725,0,0,0,.236.4c.135.191.286.373.417.526s.264.3.393.439l.048.053A8.4,8.4,0,0,1,63.326,82.3a9.4,9.4,0,0,1,.8,3.686,9.87,9.87,0,0,1-.3,2.326c-.188.789-.458,1.611-.7,2.336ZM7.244,58.93h0l.067.062c.141.132.274.256.4.375l.306.293.421-.046c.75-.081,1.876-.233,3.347-.451l1.432-.213L10.1,54.377a1.686,1.686,0,0,1-.113-1.71,1.673,1.673,0,0,1,.526-.611l6.32-4.519,7.027-12.27a1.706,1.706,0,0,1,.23-.312l3.052-3.27a6.663,6.663,0,0,0,1.286-7.07,7.621,7.621,0,0,0-4.77-4.368l-.509-.161-.388.368A61.7,61.7,0,0,0,10.527,36.668a62.437,62.437,0,0,0-6.312,19l-.08.5.379.331c1.241,1.086,2.109,1.861,2.731,2.438Z" transform="translate(0 0)" fill="#f18345" stroke="#f18345" stroke-miterlimit="10" stroke-width="1"/></g></g><path d="M.127.129h0Z" transform="translate(120.265 62.871)" fill="#accc02"/><path d="M.129.129h0Z" transform="translate(110.265 46.871)" fill="#accc02"/></g></svg>