<svg xmlns="http://www.w3.org/2000/svg" xmlns:xlink="http://www.w3.org/1999/xlink" width="123.929" height="142.757" viewBox="0 0 123.929 142.757"><defs><clipPath id="a"><path d="M0,0H123.929V142.757H0Z" transform="translate(0 0.243)" fill="none"/></clipPath></defs><g transform="translate(-0.761 -0.243)"><path d="M34.456.15a2.371,2.371,0,0,0-3.049,1.392A66.067,66.067,0,0,1,15.89,25.474,67.425,67.425,0,0,1,1.215,36.558,2.372,2.372,0,1,0,3.529,40.7a72.229,72.229,0,0,0,15.7-11.857A70.742,70.742,0,0,0,35.85,3.2,2.372,2.372,0,0,0,34.456.15" transform="translate(69.761 79)" fill="#f18345"/><path d="M2.346,22a2.312,2.312,0,0,0,1.8-.875A56.44,56.44,0,0,0,13.875,3.232a2.522,2.522,0,0,0-.457-2.4A2.3,2.3,0,0,0,11.194.047,2.382,2.382,0,0,0,9.428,1.658,51.491,51.491,0,0,1,.548,17.986a2.524,2.524,0,0,0-.328,2.6A2.344,2.344,0,0,0,2.346,22" transform="translate(40.761 59)" fill="#f18345"/><path d="M28.49,57a2.377,2.377,0,0,1-2.375-2.374v-2.5a23.47,23.47,0,0,1-7.362-2l-1.259,2.178v-.019a2.381,2.381,0,0,1-2.059,1.2H15.43a2.376,2.376,0,0,1-2.05-3.577l1.264-2.187A23.882,23.882,0,0,1,9.25,42.337L7.063,43.6a2.375,2.375,0,1,1-2.375-4.114l2.178-1.258a23.494,23.494,0,0,1-2-7.363h-2.5a2.375,2.375,0,0,1,0-4.75H4.883a23.422,23.422,0,0,1,2-7.362L4.7,17.494a2.375,2.375,0,1,1,2.375-4.113l2.187,1.264a23.873,23.873,0,0,1,5.4-5.395L13.4,7.063a2.374,2.374,0,0,1,2.049-3.576h.005a2.38,2.38,0,0,1,2.059,1.2l1.259,2.178a23.48,23.48,0,0,1,7.362-2v-2.5a2.375,2.375,0,0,1,4.75,0V4.883a23.444,23.444,0,0,1,7.362,1.994L39.506,4.7a2.38,2.38,0,0,1,2.06-1.2h.005a2.374,2.374,0,0,1,2.049,3.576L42.356,9.263a23.863,23.863,0,0,1,5.394,5.4L49.937,13.4a2.375,2.375,0,1,1,2.375,4.113l-2.178,1.259a23.422,23.422,0,0,1,2,7.362h2.5a2.375,2.375,0,0,1,0,4.75H52.11a23.48,23.48,0,0,1-2,7.363l2.178,1.258a2.375,2.375,0,1,1-2.375,4.114l-2.187-1.264a23.868,23.868,0,0,1-5.395,5.394L43.6,49.937a2.375,2.375,0,0,1-2.048,3.577h-.005a2.381,2.381,0,0,1-2.06-1.2l-1.259-2.178a23.47,23.47,0,0,1-7.362,2v2.5A2.377,2.377,0,0,1,28.49,57ZM28.5,9.5a18.94,18.94,0,1,0,7.4,1.493A18.882,18.882,0,0,0,28.5,9.5Z" transform="translate(52.761 17)" fill="#f18345"/><path d="M2.5,0A2.5,2.5,0,1,1,0,2.5,2.5,2.5,0,0,1,2.5,0" transform="translate(71.761 36)" fill="#f18345"/><path d="M2.5,0A2.5,2.5,0,1,1,0,2.5,2.5,2.5,0,0,1,2.5,0" transform="translate(74.761 52)" fill="#f18345"/><path d="M2.5,0A2.5,2.5,0,1,1,0,2.5,2.5,2.5,0,0,1,2.5,0" transform="translate(33.761 102)" fill="#f18345"/><path d="M2.5,0A2.5,2.5,0,1,1,0,2.5,2.5,2.5,0,0,1,2.5,0" transform="translate(40.761 107)" fill="#f18345"/><path d="M2.5,0A2.5,2.5,0,1,1,0,2.5,2.5,2.5,0,0,1,2.5,0" transform="translate(85.761 41)" fill="#f18345"/><path d="M21.5,43a2.392,2.392,0,0,1-2.389-2.389V38.043a16.585,16.585,0,0,1-3.821-1.015l-1.276,2.217a2.4,2.4,0,0,1-2.071,1.209h-.005a2.389,2.389,0,0,1-2.061-3.6l1.29-2.234A16.928,16.928,0,0,1,8.38,31.834L6.144,33.125a2.389,2.389,0,1,1-2.389-4.138L5.984,27.7a16.5,16.5,0,0,1-1.015-3.811H2.389a2.389,2.389,0,1,1,0-4.777h2.58A16.566,16.566,0,0,1,5.974,15.3L3.746,14.013A2.389,2.389,0,0,1,6.134,9.876l2.236,1.29a16.944,16.944,0,0,1,2.785-2.787L9.866,6.144A2.389,2.389,0,0,1,14,3.755l1.285,2.229a16.585,16.585,0,0,1,3.821-1.015V2.389a2.389,2.389,0,0,1,4.778,0v2.58A16.606,16.606,0,0,1,27.7,5.984l1.285-2.229a2.389,2.389,0,0,1,4.138,2.389L31.834,8.378a16.917,16.917,0,0,1,2.785,2.787l2.236-1.29a2.389,2.389,0,0,1,2.389,4.137L37.016,15.3a16.588,16.588,0,0,1,1.015,3.811h2.58a2.389,2.389,0,0,1,0,4.777h-2.58a16.575,16.575,0,0,1-1,3.822l2.227,1.275a2.389,2.389,0,1,1-2.389,4.138l-2.236-1.291a16.889,16.889,0,0,1-2.786,2.788l1.29,2.234A2.389,2.389,0,0,1,29,39.244l-1.285-2.228a16.6,16.6,0,0,1-3.822,1.015v2.58A2.391,2.391,0,0,1,21.5,43Zm0-33.445a11.945,11.945,0,1,0,8.446,3.5A11.867,11.867,0,0,0,21.5,9.555Z" transform="translate(19.761 86)" fill="#f18345"/><g transform="translate(0.761)"><path d="M0,0H123.929V142.757H0Z" transform="translate(0 0.243)" fill="none"/><g clip-path="url(#a)"><path d="M38.131,142.757a2.384,2.384,0,0,1-2.383-2.379v-2.447a30.491,30.491,0,0,1-16.788-5.978l-2.976,2.971a2.381,2.381,0,1,1-3.37-3.363l2.752-2.75a28.347,28.347,0,0,1-8.05-16.977H2.383a2.379,2.379,0,1,1,0-4.757H7.255A33.221,33.221,0,0,1,14.8,87.155l-4.568-4.562A2.381,2.381,0,0,1,13.6,79.23l4.557,4.541a29.668,29.668,0,0,1,2.859-2.2A56.219,56.219,0,0,0,33.171,70.954l-3.513-2.336A2.38,2.38,0,0,1,32.3,64.66l3.738,2.486a41.728,41.728,0,0,0,6.791-21.915h-4.7a2.379,2.379,0,1,1,0-4.757h4.89A37.732,37.732,0,0,1,46.879,26.1l-5.057-2.524a2.381,2.381,0,0,1,2.131-4.258l5.288,2.641A37.751,37.751,0,0,1,63.751,8.95L62.2,5.856A2.383,2.383,0,0,1,66.47,3.731l1.669,3.311A37.794,37.794,0,0,1,89.646,5.8l.986-3.954A2.383,2.383,0,1,1,95.256,3L94.215,7.172a37.543,37.543,0,0,1,11.97,7.207l1.757-1.753a2.378,2.378,0,1,1,3.37,3.357l-1.8,1.8a39.055,39.055,0,0,1,8.529,16.586l2.749-.914a2.386,2.386,0,0,1,3.018,1.508,2.381,2.381,0,0,1-1.511,3.011l-3.413,1.137a40.214,40.214,0,0,1,.276,4.491V56.78c0,.738-.025,1.484-.049,2.2v.029q-.008.246-.016.492h2.45a2.379,2.379,0,1,1,0,4.757h-2.736a79.846,79.846,0,0,1-6.978,26.166h.181a2.379,2.379,0,1,1,0,4.757h-2.545a81.315,81.315,0,0,1-14.311,19.03c-.987.976-2.023,1.953-3.079,2.9l2.554,2.55a2.381,2.381,0,0,1-3.37,3.363l-2.843-2.838a80.931,80.931,0,0,1-25.781,13.835l1.461,2.913a2.383,2.383,0,0,1-4.266,2.127l-1.844-3.685a82.923,82.923,0,0,1-17.471,2.542v2.453A2.384,2.384,0,0,1,38.131,142.757ZM68.037,12.206h0a33.272,33.272,0,0,0-10.009,6.576,32.976,32.976,0,0,0-10.365,24.07,46.944,46.944,0,0,1-2.142,15.141,46.992,46.992,0,0,1-6.887,13.66.038.038,0,0,0-.006.018.092.092,0,0,1-.02.046.423.423,0,0,1-.054.064.542.542,0,0,0-.044.049,58.458,58.458,0,0,1-14.855,13.7,27.295,27.295,0,0,0-11.74,23.958,24.919,24.919,0,0,0,24.9,23.754c.14,0,.281,0,.421,0h.252a76.9,76.9,0,0,0,49.363-17.926l.017-.026a.1.1,0,0,1,.03-.02.131.131,0,0,0,.029-.019c1.811-1.52,3.4-2.963,4.862-4.412a76.5,76.5,0,0,0,13.975-18.889,1.259,1.259,0,0,1,.066-.131c.014-.025.028-.05.041-.076a75.557,75.557,0,0,0,8.515-34.967V43.6a34.337,34.337,0,0,0-9.669-24.008,1.846,1.846,0,0,1-.238-.152c-.053-.072-.1-.139-.138-.2A32.74,32.74,0,0,0,82.639,9.589c-.531-.025-1.068-.038-1.6-.038A32.955,32.955,0,0,0,68.05,12.206h-.013Z" transform="translate(0 0.243)" fill="#f18345"/></g></g></g></svg>