<svg xmlns="http://www.w3.org/2000/svg" xmlns:xlink="http://www.w3.org/1999/xlink" width="90.815" height="130" viewBox="0 0 90.815 130"><defs><clipPath id="a"><path d="M0,0H90.815V130H0Z" transform="translate(0 0)" fill="none"/></clipPath></defs><g transform="translate(-0.821)"><path d="M.13.131h0Z" transform="translate(21.691 52.869)" fill="#accc02"/><g transform="translate(0.821)"><path d="M0,0H90.815V130H0Z" transform="translate(0 0)" fill="none"/><g clip-path="url(#a)"><path d="M45.408,130a45.235,45.235,0,0,1-32.092-13.33A45.334,45.334,0,0,1,0,84.541V53.085a12.542,12.542,0,0,1,21.7-8.6L23.032,45.9l1.33-1.416a12.591,12.591,0,0,1,4.083-2.9,12.517,12.517,0,0,1,10.121,0,12.586,12.586,0,0,1,4.083,2.9L43.979,45.9l1.33-1.415a12.588,12.588,0,0,1,4.083-2.9,12.5,12.5,0,0,1,10.787.322l2.661,1.373v-30.7a12.559,12.559,0,1,1,25.118,0V66.06l.364.487a12.48,12.48,0,0,1,2.493,7.51V84.541A45.419,45.419,0,0,1,45.408,130ZM4.06,83.83h0l.188,3.18A41.3,41.3,0,0,0,45.4,125.823h.005A41.27,41.27,0,0,0,86.642,84.544V74.121c0-.02,0-.043,0-.071V74a8.4,8.4,0,0,0-8.387-8.34H33.5a8.314,8.314,0,0,0-5.925,2.461l-.007.007a8.342,8.342,0,0,0-2.452,5.912v.036A8.4,8.4,0,0,0,33.5,82.453H67.782a2.088,2.088,0,0,1,0,4.177H33.506a12.408,12.408,0,0,1-5.061-1.068,12.591,12.591,0,0,1-4.083-2.9l-1.329-1.416L21.7,82.66a12.6,12.6,0,0,1-4.084,2.9A12.5,12.5,0,0,1,6.9,85.271L4.06,83.83Zm8.5-39.143a8.4,8.4,0,0,0-8.384,8.4V74.055a8.4,8.4,0,0,0,8.383,8.4h.016a8.4,8.4,0,0,0,8.376-8.386V53.041A8.4,8.4,0,0,0,12.6,44.688h-.041Zm15.021,2.462a8.333,8.333,0,0,0-2.458,5.934V64.245l2.661-1.372a12.382,12.382,0,0,1,5.726-1.39h8.387V53.041a8.4,8.4,0,0,0-7.6-8.316h-.014c-.247-.023-.492-.035-.729-.036h-.822v.038a8.377,8.377,0,0,0-5.146,2.425h0ZM75.393,4.177a8.4,8.4,0,0,0-8.381,8.4v48.91H78.256a12.55,12.55,0,0,1,3.236.425l2.3.614V12.575a8.4,8.4,0,0,0-8.351-8.4h-.043ZM54.449,44.687a8.4,8.4,0,0,0-8.383,8.4v8.4H62.841V53.042a8.4,8.4,0,0,0-8.348-8.354h-.042Z" transform="translate(0 0)" fill="#f18345"/></g></g></g></svg>