<svg xmlns="http://www.w3.org/2000/svg" xmlns:xlink="http://www.w3.org/1999/xlink" width="526.475" height="74.033" viewBox="0 0 526.475 74.033"><defs><clipPath id="a"><path d="M0,0H16.737V18.587H0Z" transform="translate(0 0.732)" fill="none"/></clipPath><clipPath id="b"><path d="M0,0H11.4V17.843H0Z" transform="translate(0.397 0.967)" fill="none"/></clipPath><clipPath id="c"><path d="M0,0H12.085V18.378H0Z" transform="translate(0.719 0.622)" fill="none"/></clipPath><clipPath id="d"><path d="M1.085,0H8.359V9.35H1.085Z" transform="translate(0.116 0.623)" fill="none"/></clipPath></defs><g transform="translate(0 -0.967)"><g transform="translate(0 12)"><path d="M0,0H16.737V18.587H0Z" transform="translate(0 0.732)" fill="none"/><g clip-path="url(#a)"><path d="M10.966,14.226a5.359,5.359,0,0,0,1.806-1.076c.65-.593,1.021-1.122,1.553-1.323,1.048-.374,2.059.693,2.33,1.478a2.172,2.172,0,0,1-.578,2.062A9.69,9.69,0,0,1,12.023,18c-4.669,1.66-9.465-.21-11.388-5.711C-1.379,6.5,1.664,2.2,6.062.642A9.419,9.419,0,0,1,10.777.113,2.092,2.092,0,0,1,12.5,1.39c.28.8.181,2.253-.894,2.636a6.062,6.062,0,0,1-2.14.018,5.6,5.6,0,0,0-2.168.3c-2.249.8-3.784,3-2.592,6.4,1.219,3.531,3.9,4.306,6.259,3.476" transform="translate(-0.001 0.732)" fill="#263449"/></g></g><path d="M1.272,19a1.1,1.1,0,0,1-1.216-.873A2.677,2.677,0,0,1,.065,16.99L2.178,2.664c.213-1.411.581-2.192,2-2.55A3.14,3.14,0,0,1,4.972,0c.882,0,1.412.5,2.082,1.42L15.489,13.1a2.983,2.983,0,0,1,.471.913c.2.818-.352,1.415-1.6,1.727a3.318,3.318,0,0,1-.84.125c-.863,0-1.39-.522-2.01-1.423l-1.306-1.9-5.852,1.5-.248,2.3A3.411,3.411,0,0,1,3.6,18a2.448,2.448,0,0,1-1.465.874A3.621,3.621,0,0,1,1.272,19ZM5.295,5.358l-.568,5.154,3.516-.9Z" transform="translate(19 8)" fill="#263449"/><path d="M6.564,17.266A2.624,2.624,0,0,1,6.518,19a2.125,2.125,0,0,1-1.659.943,2.085,2.085,0,0,1-1.891-.366,2.693,2.693,0,0,1-.612-1.621L.028,4.079c-.176-1.035.464-1.813,2-2.06a3.268,3.268,0,0,1,3.18,1.117l8.631,8.022L12.433,2.733A2.563,2.563,0,0,1,12.479,1,2.118,2.118,0,0,1,14.12.059a2.176,2.176,0,0,1,1.91.357,2.713,2.713,0,0,1,.6,1.639l2.336,13.892c.185,1.136-.454,1.841-1.724,2.042A3.147,3.147,0,0,1,14.3,16.881L5.1,8.548Z" transform="translate(35 3)" fill="#263449"/><path d="M5.408,16.47a2.572,2.572,0,0,1-.2,1.711,2.113,2.113,0,0,1-1.742.8A2.16,2.16,0,0,1,1.6,18.464,2.691,2.691,0,0,1,1.12,16.79L.005,2.8C-.069,1.762.623,1.048,2.2.929A3.3,3.3,0,0,1,5.3,2.31l7.968,8.708-.674-8.47A2.668,2.668,0,0,1,12.8.81a2.147,2.147,0,0,1,1.742-.8A2.181,2.181,0,0,1,16.41.536a2.677,2.677,0,0,1,.468,1.674l1.114,14.023c.094,1.143-.627,1.775-1.9,1.875a3.206,3.206,0,0,1-2.884-1.354L4.715,7.68Z" transform="translate(56 1)" fill="#263449"/><g transform="translate(78)"><path d="M0,0H11.4V17.843H0Z" transform="translate(0.397 0.967)" fill="none"/><g clip-path="url(#b)"><path d="M4.266,6.635,7.3,6.6A3.031,3.031,0,0,1,9,6.845,1.761,1.761,0,0,1,9.69,8.41a1.74,1.74,0,0,1-.649,1.573,3.207,3.207,0,0,1-1.7.293L4.3,10.313l.046,3.824L9,14.072a3.146,3.146,0,0,1,1.7.265,1.739,1.739,0,0,1,.7,1.564,1.753,1.753,0,0,1-.658,1.573,3,3,0,0,1-1.688.293l-6.806.082C.733,17.869.177,17.293.158,15.838L0,2.134C-.018.652.538.094,2.04.076L8.29,0a3,3,0,0,1,1.7.265,1.746,1.746,0,0,1,.686,1.564A1.732,1.732,0,0,1,10.024,3.4a3.1,3.1,0,0,1-1.7.3l-4.1.037Z" transform="translate(0.397 0.959)" fill="#263449"/></g></g><path d="M6.468,18c-.44,0-.9-.012-1.375-.037a11.089,11.089,0,0,1-3.975-.708C.112,16.786-.041,16.181.009,15.084L.667,2.462c.065-1.317.407-2,2.171-2.3A17.986,17.986,0,0,1,5.461,0c.417,0,.853.01,1.3.029,3.3.163,5.518.79,7.2,2.034a7.335,7.335,0,0,1,2.253,2.776,9.528,9.528,0,0,1,.773,4.56C16.771,13.587,14.7,15.617,13,16.583A12.948,12.948,0,0,1,6.468,18ZM4.483,14.213s.64.082,1.428.118c.239.011.46.017.673.017a7.238,7.238,0,0,0,3.656-.822A4.716,4.716,0,0,0,12.48,9.4a5.255,5.255,0,0,0-1.607-4.413A6.611,6.611,0,0,0,6.738,3.706c-.249-.012-.494-.019-.729-.019a8.656,8.656,0,0,0-.991.046l-.536,10.48Z" transform="translate(93 1)" fill="#263449"/><path d="M7.475,18a21.816,21.816,0,0,1-2.65-.183,14.68,14.68,0,0,1-3.407-.754c-1.5-.6-1.505-1.444-1.354-2.578L1.831,2.075C2.04.642,2.66.123,4.288.019,4.5.006,4.727,0,4.976,0A20.058,20.058,0,0,1,7.493.172c2.9.364,4.859,1.188,5.819,2.449a3.526,3.526,0,0,1,.64,2.742A3.8,3.8,0,0,1,12.02,8.271a4.506,4.506,0,0,1-1.6.538l.006,0a5.686,5.686,0,0,1,1.864,1A4.053,4.053,0,0,1,13.759,13.7a4.761,4.761,0,0,1-3.7,4A10.081,10.081,0,0,1,7.475,18Zm-3.1-3.577a8.862,8.862,0,0,0,1.1.189,8.945,8.945,0,0,0,1.073.071c1.657,0,2.546-.6,2.718-1.832a1.98,1.98,0,0,0-.931-2.038A6.211,6.211,0,0,0,5.576,10L5.516,10l-.508-.054-.634,4.481ZM5.928,3.4l-.5,3.547.518.072a8.548,8.548,0,0,0,1.006.073,3.041,3.041,0,0,0,1.48-.316,1.692,1.692,0,0,0,.892-1.292,1.416,1.416,0,0,0-.257-1.1,3.141,3.141,0,0,0-2.075-.9A10.23,10.23,0,0,0,5.928,3.4Z" transform="translate(119 3)" fill="#263449"/><path d="M5.8,6.953,8.761,7.5a2.933,2.933,0,0,1,1.611.562,1.786,1.786,0,0,1,.377,1.677,1.754,1.754,0,0,1-.93,1.428,2.991,2.991,0,0,1-1.712-.018l-2.965-.534L4.462,14.4l4.548.811a3.005,3.005,0,0,1,1.611.571A1.778,1.778,0,0,1,11,17.458a1.806,1.806,0,0,1-.93,1.428,3.007,3.007,0,0,1-1.712-.028l-6.638-1.2C.245,17.412-.188,16.739.07,15.292L2.5,1.728C2.758.254,3.4-.189,4.867.069l6.1,1.1a2.9,2.9,0,0,1,1.6.581,1.724,1.724,0,0,1,.377,1.659,1.757,1.757,0,0,1-.93,1.438,3.075,3.075,0,0,1-1.712-.018l-4-.728Z" transform="translate(135 5)" fill="#263449"/><path d="M15.556,19a4.484,4.484,0,0,1-.932-.113,2.465,2.465,0,0,1-1.492-.8,3.47,3.47,0,0,1-.571-1.695l-.319-2.323L6.029,12.705,4.7,14.666c-.63.924-1.193,1.459-2.2,1.459a4.082,4.082,0,0,1-.862-.1,2.279,2.279,0,0,1-1.49-.8,1.048,1.048,0,0,1-.1-.826,2.589,2.589,0,0,1,.553-1.022L9.412,1.462A2.777,2.777,0,0,1,11.707,0a3.644,3.644,0,0,1,.8.1c1.47.321,1.842,1.066,2.081,2.512l2.353,14.425a2.37,2.37,0,0,1,.009,1.031C16.813,18.685,16.345,19,15.556,19Zm-4.5-13.661h0L8.063,9.7l3.721.831-.731-5.2Z" transform="translate(147 10)" fill="#263449"/><path d="M4.29,15.749A2.562,2.562,0,0,1,3.5,17.286a2.09,2.09,0,0,1-1.875.164A2.112,2.112,0,0,1,.092,16.331a2.687,2.687,0,0,1,.146-1.719L4.08,1.173C4.363.172,5.241-.255,6.732.154A3.185,3.185,0,0,1,9.092,2.5l4.289,10.8L15.7,5.156a2.647,2.647,0,0,1,.787-1.537,2.079,2.079,0,0,1,1.866-.155A2.069,2.069,0,0,1,19.9,4.583a2.506,2.506,0,0,1-.155,1.71L15.914,19.76c-.32,1.1-1.18,1.464-2.4,1.109a3.076,3.076,0,0,1-2.177-2.228L6.7,7.3Z" transform="translate(167 13)" fill="#263449"/><path d="M12.154,14.318c-1.052,3.34-4.44,4.33-7.791,3.285a8.564,8.564,0,0,1-3.342-1.9A2.333,2.333,0,0,1,.08,13.327,2.038,2.038,0,0,1,2.37,11.85c1.062.33,1.5,1.8,3.111,2.3,1.163.358,2.151,0,2.446-.945.314-1.028-.452-1.9-1.422-2.853C4.816,8.694,2.462,6.611,3.431,3.51,4.4.464,7.65-.646,10.926.363c2.326.725,4.486,2.486,4.006,4.037a2.071,2.071,0,0,1-2.345,1.385c-.96-.3-1.5-1.532-2.843-1.954-1.025-.312-1.837.037-2.058.743C7.262,5.932,9.44,7.281,10.926,9.1A5.273,5.273,0,0,1,12.154,14.318Z" transform="translate(186 19)" fill="#263449"/><path d="M4.2,7.548A2.515,2.515,0,0,1,2.452,4.2a2.531,2.531,0,0,1,3.34-1.75A2.53,2.53,0,0,1,7.552,5.8,2.518,2.518,0,0,1,4.2,7.548" transform="translate(196 33)" fill="#263449"/><path d="M9.963,19a10.85,10.85,0,0,1-3.079-.465,9.4,9.4,0,0,1-5.862-4.509A9.548,9.548,0,0,1,.428,6.868,9.769,9.769,0,0,1,3.645,1.841,8.536,8.536,0,0,1,9.035,0a10.871,10.871,0,0,1,3.085.466,9.392,9.392,0,0,1,5.858,4.5,9.563,9.563,0,0,1,.6,7.153C17.363,16.365,14.063,19,9.963,19ZM9.4,3.821c-2.245,0-3.971,1.545-4.734,4.239a6.115,6.115,0,0,0,.172,4.407,4.878,4.878,0,0,0,3.129,2.47,5.764,5.764,0,0,0,1.623.247c2.248,0,3.976-1.547,4.741-4.244a6.1,6.1,0,0,0-.164-4.406,4.852,4.852,0,0,0-3.128-2.462A5.781,5.781,0,0,0,9.4,3.821Z" transform="translate(213 27)" fill="#accc02"/><path d="M2.538,17a3.417,3.417,0,0,1-.894-.138A2.009,2.009,0,0,1,.1,15.788,2.542,2.542,0,0,1,.22,14.107L3.489,1.9C3.715,1.038,3.948.152,5.406.017,5.529.006,5.664,0,5.808,0A12.655,12.655,0,0,1,8.783.464,9.956,9.956,0,0,1,13.62,3.032a5.063,5.063,0,0,1,1.164,5.009c-.738,2.73-2.818,4.233-5.857,4.233a11.04,11.04,0,0,1-2.831-.4c-.495-.141-.909-.276-.913-.277l-.95,3.578-.008.03A2.555,2.555,0,0,1,3.5,16.691,1.487,1.487,0,0,1,2.538,17ZM7.287,3.784h0L6.042,8.426a4.977,4.977,0,0,0,.761.25,5.457,5.457,0,0,0,1.4.2,2.258,2.258,0,0,0,2.41-1.739,2.123,2.123,0,0,0-.369-2A3.871,3.871,0,0,0,8.228,3.989a8.441,8.441,0,0,0-.94-.205Z" transform="translate(233 33)" fill="#accc02"/><path d="M6.45,6.941l2.966.7a3.155,3.155,0,0,1,1.59.664,1.7,1.7,0,0,1,.281,1.664,1.73,1.73,0,0,1-1.039,1.346A3.134,3.134,0,0,1,8.527,11.2l-2.966-.709-.926,3.674,4.538,1.082a3.151,3.151,0,0,1,1.6.655,1.717,1.717,0,0,1,.262,1.664,1.722,1.722,0,0,1-1.029,1.355,3.1,3.1,0,0,1-1.731-.127L1.641,17.208C.173,16.853-.23,16.171.116,14.762L3.447,1.594C3.812.175,4.476-.234,5.954.121l6.091,1.455a3.188,3.188,0,0,1,1.6.655,1.738,1.738,0,0,1,.271,1.664A1.765,1.765,0,0,1,12.878,5.25a3.153,3.153,0,0,1-1.721-.127l-4-.964Z" transform="translate(248 36)" fill="#accc02"/><path d="M4.2,15.432a2.471,2.471,0,0,1-.675,1.54,2.028,2.028,0,0,1-1.819.249,2.012,2.012,0,0,1-1.576-1,2.525,2.525,0,0,1,.045-1.683l3-13.3C3.4.251,4.252-.221,5.72.1a3.1,3.1,0,0,1,2.44,2.164l4.818,10.293L14.8,4.489a2.5,2.5,0,0,1,.684-1.549A2.069,2.069,0,0,1,17.3,2.682,2.084,2.084,0,0,1,18.876,3.7a2.506,2.506,0,0,1-.054,1.674L15.815,18.7c-.234,1.1-1.072,1.487-2.287,1.22a3.034,3.034,0,0,1-2.251-2.057L6.089,7.08Z" transform="translate(263 39)" fill="#accc02"/><path d="M7.08,16.978a2.735,2.735,0,0,1-.639,1.636,2.147,2.147,0,0,1-1.955.3,2.163,2.163,0,0,1-1.7-1,2.811,2.811,0,0,1-.009-1.757L4.977,4.561,2.012,4a2.8,2.8,0,0,1-1.6-.623A1.894,1.894,0,0,1,.057,1.642,1.9,1.9,0,0,1,1.03.127,2.89,2.89,0,0,1,2.744.136L12.992,2.1a2.969,2.969,0,0,1,1.6.623,1.906,1.906,0,0,1,.343,1.766,1.848,1.848,0,0,1-.964,1.478,2.687,2.687,0,0,1-1.714-.009L9.285,5.4Z" transform="translate(290 44)" fill="#accc02"/><path d="M15.735,17.936a2.867,2.867,0,0,1-.593,1.673,2.146,2.146,0,0,1-1.916.324c-.921-.157-1.46-.434-1.706-.924a2.8,2.8,0,0,1-.046-1.775l.839-5.2L5.226,10.855l-.848,5.2a2.772,2.772,0,0,1-.6,1.673,2.11,2.11,0,0,1-1.907.333C.957,17.9.419,17.613.163,17.113a2.767,2.767,0,0,1-.046-1.766L2.261,2.064A2.778,2.778,0,0,1,2.873.4,2.083,2.083,0,0,1,4.779.067C5.691.224,6.23.5,6.485.991a2.742,2.742,0,0,1,.046,1.775L5.837,7.037l7.088,1.174.7-4.262a2.685,2.685,0,0,1,.593-1.664,2.11,2.11,0,0,1,1.916-.333c.921.148,1.45.434,1.7.924a2.738,2.738,0,0,1,.046,1.775Z" transform="translate(305 48)" fill="#accc02"/><path d="M5.662,6.974l3.115.411a3.118,3.118,0,0,1,1.711.523,1.763,1.763,0,0,1,.462,1.661,1.763,1.763,0,0,1-.913,1.484,3.162,3.162,0,0,1-1.779.056l-3.125-.42-.538,3.864,4.769.635a3.062,3.062,0,0,1,1.7.5,1.73,1.73,0,0,1,.462,1.671,1.725,1.725,0,0,1-.9,1.484,3.008,3.008,0,0,1-1.779.047l-6.981-.915C.326,17.764-.165,17.111.047,15.636L2,1.822C2.22.319,2.864-.166,4.4.048l6.4.859a3.088,3.088,0,0,1,1.7.5,1.768,1.768,0,0,1,.462,1.671,1.748,1.748,0,0,1-.913,1.493,3.163,3.163,0,0,1-1.779.047l-4.2-.56Z" transform="translate(326 51)" fill="#accc02"/><path d="M2.413,18c-.135,0-.282-.007-.436-.021a2.145,2.145,0,0,1-1.751-.847,2.609,2.609,0,0,1-.169-1.72l0-.02L1.383,2.4C1.478,1.455,1.567.561,3.032.184A7.773,7.773,0,0,1,4.9,0c.512,0,1.07.028,1.659.082a10.352,10.352,0,0,1,5.382,1.832,5.154,5.154,0,0,1,2.02,4.9,5.48,5.48,0,0,1-2.256,4.094A8.041,8.041,0,0,1,7,12.211a12.875,12.875,0,0,1-1.3-.068c-.514-.046-.959-.119-.964-.12l-.389,3.793,0,.033a2.657,2.657,0,0,1-.5,1.652A1.86,1.86,0,0,1,2.413,18ZM5.08,8.644a7.165,7.165,0,0,0,.833.138c.214.02.424.031.626.031,1.038,0,2.807-.29,3-2.231a2.257,2.257,0,0,0-.451-1.728A3.577,3.577,0,0,0,6.59,3.765c-.5-.045-1-.046-1-.046h0L5.08,8.644Z" transform="translate(347 54)" fill="#accc02"/><path d="M9.662,18c-.282,0-.57-.01-.858-.029a9.564,9.564,0,0,1-6.775-3.1,8.671,8.671,0,0,1-2-6.474,8.876,8.876,0,0,1,2.8-6.058A9.452,9.452,0,0,1,9.346,0c.276,0,.559.009.841.028a9.554,9.554,0,0,1,6.779,3.089A8.789,8.789,0,0,1,18.971,9.6a8.883,8.883,0,0,1-2.8,6.056A9.436,9.436,0,0,1,9.662,18ZM9.421,3.6C6.533,3.6,4.67,5.482,4.439,8.639A5.57,5.57,0,0,0,5.594,12.8a4.961,4.961,0,0,0,3.523,1.589c.16.011.32.017.476.017,2.871,0,4.728-1.885,4.968-5.042a5.574,5.574,0,0,0-1.147-4.151,4.986,4.986,0,0,0-3.532-1.6C9.728,3.6,9.572,3.6,9.421,3.6Z" transform="translate(362 56)" fill="#accc02"/><path d="M9.375,8.278A5.122,5.122,0,0,1,11.925,12.9c-.138,3.415-3.149,5.225-6.657,5.091a9.146,9.146,0,0,1-3.738-.95C.664,16.568-.027,15.968,0,15.027a2,2,0,0,1,1.832-1.981c1.114.045,1.915,1.326,3.6,1.389,1.215.045,2.072-.538,2.118-1.506.037-1.058-.939-1.685-2.127-2.348C3.371,9.452.535,8.072.664,4.89.793,1.762,3.647-.12,7.073.006,9.513.1,12.063,1.225,12,2.82a2.04,2.04,0,0,1-1.906,1.891c-.985-.036-1.832-1.067-3.241-1.12-1.087-.045-1.777.493-1.8,1.219C4.992,6.217,7.459,6.934,9.375,8.278" transform="translate(383 57)" fill="#accc02"/><g transform="translate(396 56)"><path d="M0,0H12.085V18.378H0Z" transform="translate(0.719 0.622)" fill="none"/><g clip-path="url(#c)"><path d="M9.352,8.371a5.238,5.238,0,0,1,2.732,4.656c-.047,3.495-3.07,5.4-6.657,5.352A8.9,8.9,0,0,1,1.606,17.5C.7,17.044-.018,16.458,0,15.489A2.028,2.028,0,0,1,1.8,13.43c1.127.018,1.981,1.29,3.709,1.317,1.239.018,2.094-.6,2.1-1.592.019-1.07-.986-1.692-2.216-2.333C3.268,9.716.348,8.38.4,5.133.451,1.949,3.3-.045,6.8,0c2.479.027,5.117,1.116,5.1,2.735A2.071,2.071,0,0,1,10,4.721C8.986,4.7,8.094,3.669,6.657,3.651c-1.1-.009-1.784.558-1.8,1.3-.009,1.427,2.516,2.095,4.5,3.421" transform="translate(0.719 0.622)" fill="#accc02"/></g></g><path d="M7.415,15.626a2.469,2.469,0,0,1-.34,1.728A2.468,2.468,0,0,1,5.065,18a2.449,2.449,0,0,1-2.02-.628,2.412,2.412,0,0,1-.38-1.71L2.585,2.374A2.478,2.478,0,0,1,2.935.646a2.417,2.417,0,0,1,2-.646,2.449,2.449,0,0,1,2.02.628,2.465,2.465,0,0,1,.37,1.71Z" transform="translate(409 57)" fill="#accc02"/><path d="M4.451,18a10.07,10.07,0,0,1-2.31-.213C.645,17.4.5,16.564.464,15.419L0,2.8C-.051,1.349.438.735,1.943.368A15.808,15.808,0,0,1,4.928.014C5.166.005,5.4,0,5.627,0a8.1,8.1,0,0,1,4.514,1.051A3.688,3.688,0,0,1,11.77,4.16a3.858,3.858,0,0,1-1.3,3.193,4.045,4.045,0,0,1-1.383.789h.006a5.179,5.179,0,0,1,1.892.7A4.238,4.238,0,0,1,13,12.488a4.778,4.778,0,0,1-.768,2.89,4.889,4.889,0,0,1-1.972,1.665,12.526,12.526,0,0,1-4.841.934C5.081,17.992,4.757,18,4.451,18ZM5.5,10.082c-.267,0-.537.011-.754.02l-.487.018.172,4.555c.006,0,.274.027.661.027.131,0,.264,0,.394-.009C7.7,14.6,8.751,13.835,8.7,12.343A2.084,2.084,0,0,0,7.5,10.456a4.559,4.559,0,0,0-2-.374ZM5.237,3.375c-.071,0-.145,0-.219,0-.472.019-.987.09-.992.091l.135,3.611.478-.027A3.789,3.789,0,0,0,6.91,6.438a1.779,1.779,0,0,0,.6-1.443C7.462,3.656,6.247,3.375,5.237,3.375Z" transform="translate(421 57)" fill="#accc02"/><path d="M7.82,15.5a2.576,2.576,0,0,1-.24,1.745,2.447,2.447,0,0,1-1.97.74,2.473,2.473,0,0,1-2.05-.511,2.59,2.59,0,0,1-.48-1.7l-.9-13.29A2.549,2.549,0,0,1,2.42.754,2.423,2.423,0,0,1,4.38.014a2.475,2.475,0,0,1,2.05.5,2.6,2.6,0,0,1,.48,1.708Z" transform="translate(435 56)" fill="#accc02"/><path d="M10.357,13.474a2.9,2.9,0,0,1,1.781.156,1.809,1.809,0,0,1,.843,1.578,1.776,1.776,0,0,1-.527,1.679,3.022,3.022,0,0,1-1.724.459l-7.038.633c-1.58.138-2.183-.4-2.317-1.853L.054,2.584A2.688,2.688,0,0,1,.226.831,2.3,2.3,0,0,1,2.093.024,2.273,2.273,0,0,1,4.076.492a2.612,2.612,0,0,1,.508,1.7L5.723,13.9Z" transform="translate(445 56)" fill="#accc02"/><path d="M8.216,15.365a2.423,2.423,0,0,1-.14,1.747c-.3.476-.9.732-1.91.85a2.5,2.5,0,0,1-2.08-.412,2.574,2.574,0,0,1-.58-1.683L1.776,2.636A2.558,2.558,0,0,1,1.916.88c.3-.476.9-.732,1.92-.841A2.472,2.472,0,0,1,5.916.45a2.584,2.584,0,0,1,.57,1.673Z" transform="translate(457 54)" fill="#accc02"/><path d="M11.762,16.216A2.791,2.791,0,0,1,11.7,17.98a2.153,2.153,0,0,1-1.733.962,2.1,2.1,0,0,1-1.926-.383,2.761,2.761,0,0,1-.6-1.671L5.634,5.153,2.666,5.63A2.757,2.757,0,0,1,.952,5.592a1.858,1.858,0,0,1-.9-1.531A1.916,1.916,0,0,1,.436,2.3a2.914,2.914,0,0,1,1.622-.569L12.334.1A2.89,2.89,0,0,1,14.048.15a1.917,1.917,0,0,1,.912,1.559,1.9,1.9,0,0,1-.406,1.736,2.755,2.755,0,0,1-1.622.569l-2.977.467Z" transform="translate(466 52)" fill="#accc02"/><path d="M8.707,15.163a2.491,2.491,0,0,1,.01,1.772c-.26.5-.85.8-1.85.982a2.567,2.567,0,0,1-2.11-.275A2.681,2.681,0,0,1,4.047,16L1.287,2.826a2.461,2.461,0,0,1,0-1.762c.26-.5.84-.8,1.84-.982a2.53,2.53,0,0,1,2.1.285,2.618,2.618,0,0,1,.73,1.643Z" transform="translate(481 51)" fill="#accc02"/><path d="M5.134,7.519l2.878-.687a2.9,2.9,0,0,1,1.683-.119,1.749,1.749,0,0,1,.986,1.373,1.8,1.8,0,0,1-.271,1.675,2.947,2.947,0,0,1-1.557.65l-2.878.7.86,3.717,4.425-1.062a2.846,2.846,0,0,1,1.665-.119,1.77,1.77,0,0,1,1,1.364,1.779,1.779,0,0,1-.281,1.685,2.813,2.813,0,0,1-1.547.65L5.65,18.89c-1.439.339-2.09-.092-2.425-1.52L.111,4.059C-.223,2.621.175,1.962,1.6,1.605L7.532.2A2.844,2.844,0,0,1,9.2.085a1.761,1.761,0,0,1,1,1.364,1.808,1.808,0,0,1-.29,1.685,2.842,2.842,0,0,1-1.547.641L4.482,4.7Z" transform="translate(492 48)" fill="#accc02"/><path d="M9.748,7.733a5.463,5.463,0,0,1,4.018,3.733c1,3.416-1.3,6.16-4.733,7.158a8.812,8.812,0,0,1-3.924.261c-1-.177-1.863-.532-2.145-1.475a2.029,2.029,0,0,1,1.1-2.529c1.091-.327,2.3.672,3.933.187,1.195-.345,1.825-1.2,1.543-2.165-.31-1.055-1.458-1.353-2.832-1.624-2.371-.448-5.551-.9-6.492-4.06C-.706,4.1,1.411,1.321,4.77.351c2.38-.681,5.222-.411,5.692,1.176a2.065,2.065,0,0,1-1.2,2.482c-.969.28-2.126-.457-3.519-.065-1.054.308-1.534,1.064-1.317,1.783.414,1.409,3.03,1.316,5.325,2.007" transform="translate(505 43)" fill="#accc02"/><g transform="translate(518 50)"><path d="M1.085,0H8.359V9.35H1.085Z" transform="translate(0.116 0.623)" fill="none"/><g clip-path="url(#d)"><path d="M5.549,7.034A2.377,2.377,0,0,1,2.338,5.491,2.358,2.358,0,0,1,3.9,2.312,2.387,2.387,0,0,1,7.1,3.855,2.333,2.333,0,0,1,5.549,7.034" transform="translate(1.201 0.623)" fill="#accc02"/></g></g></g></svg>